<svg id="Layer_1" data-name="Layer 1" xmlns="http://www.w3.org/2000/svg" viewBox="0 0 75 75"><defs><style>.cls-1{fill:#fff;stroke-linecap:round;stroke-linejoin:round;stroke-width:2px;}.cls-1,.cls-4{stroke:#4a7894;}.cls-2{fill:#eceeeb;}.cls-3{fill:#ddc27f;}.cls-4{fill:none;stroke-miterlimit:10;}</style></defs><polygon class="cls-1" points="11.55 26.88 24.65 13.99 24.65 26.89 11.55 26.88"/><path class="cls-1" d="M50.61,61a2.69,2.69,0,0,1-2.69,2.69H14.24A2.69,2.69,0,0,1,11.55,61V26.88h10a3.08,3.08,0,0,0,3.24-3.1L24.65,14H47.91a2.69,2.69,0,0,1,2.69,2.69V31.43"/><rect class="cls-2" x="25.22" y="34.74" width="20.7" height="2.47"/><rect class="cls-3" x="29.08" y="29.68" width="17.07" height="2.47" transform="translate(75.23 61.83) rotate(180)"/><rect class="cls-3" x="29.08" y="24.62" width="17.07" height="2.47" transform="translate(75.23 51.7) rotate(180)"/><rect class="cls-3" x="29.08" y="19.55" width="17.07" height="2.47" transform="translate(75.23 41.58) rotate(180)"/><rect class="cls-2" x="25.22" y="54.99" width="19.39" height="2.47"/><rect class="cls-2" x="25.22" y="44.87" width="18.25" height="2.47"/><rect class="cls-2" x="25.22" y="49.93" width="16.98" height="2.47"/><rect class="cls-2" x="25.22" y="39.8" width="20.64" height="2.47"/><polyline class="cls-4" points="21.69 56.84 21.69 58.25 16.93 58.25 16.93 53.49 21.69 53.49"/><polyline class="cls-4" points="18.46 55.06 19.98 56.58 23.77 52.79"/><polyline class="cls-4" points="21.69 46.97 21.69 48.38 16.93 48.38 16.93 43.62 21.69 43.62"/><polyline class="cls-4" points="18.46 45.19 19.98 46.7 23.77 42.91"/><polyline class="cls-4" points="21.69 37.36 21.69 38.77 16.93 38.77 16.93 34.01 21.69 34.01"/><polyline class="cls-4" points="18.46 35.58 19.98 37.1 23.77 33.31"/><path class="cls-1" d="M66.45,46.37c0-6-6.93-11-15.48-11s-15.48,4.9-15.48,11,6.93,11,15.48,11a21.8,21.8,0,0,0,2.4-.14c1.72,1.29,2.87,3.53,7,1.56a6.34,6.34,0,0,1-2.24-2.65C63.05,54.26,66.45,50.59,66.45,46.37Z"/><polygon class="cls-4" points="56.7 44.26 53.34 44.26 53.34 40.9 49.21 40.9 49.21 44.26 45.85 44.26 45.85 48.38 49.21 48.38 49.21 51.74 53.34 51.74 53.34 48.38 56.7 48.38 56.7 44.26"/></svg>