<svg id="Layer_1" data-name="Layer 1" xmlns="http://www.w3.org/2000/svg" viewBox="0 0 150 150"><defs><style>.cls-1,.cls-3,.cls-5,.cls-7{fill:none;}.cls-1{stroke:#e0e2de;}.cls-1,.cls-2,.cls-3,.cls-5,.cls-7{stroke-miterlimit:10;}.cls-2,.cls-4{fill:#fff;}.cls-2,.cls-3,.cls-7{stroke:#4a7894;}.cls-2,.cls-3,.cls-5{stroke-width:2px;}.cls-5{stroke:#ddc27f;}.cls-6{fill:#ddc27f;}.cls-7{stroke-width:1.5px;}</style></defs><circle class="cls-1" cx="75" cy="75" r="68.25"/><g id="_Group_" data-name="&lt;Group&gt;"><path id="_Path_" data-name="&lt;Path&gt;" class="cls-2" d="M56.76,50.55l.39-2A2.55,2.55,0,0,1,60,46.38l29.57,3.84a2.55,2.55,0,0,1,2.2,2.86L86.37,94.76,52.84,84.49Z"/><rect id="_Rectangle_" data-name="&lt;Rectangle&gt;" class="cls-2" x="48.97" y="52.16" width="34.92" height="47.14" rx="2.82" ry="2.82"/><line id="_Path_2" data-name="&lt;Path&gt;" class="cls-3" x1="45.74" y1="57.15" x2="52.2" y2="57.15"/><line id="_Path_3" data-name="&lt;Path&gt;" class="cls-3" x1="45.74" y1="61.7" x2="52.2" y2="61.7"/><line id="_Path_4" data-name="&lt;Path&gt;" class="cls-3" x1="45.74" y1="66.26" x2="52.2" y2="66.26"/><line id="_Path_5" data-name="&lt;Path&gt;" class="cls-3" x1="45.74" y1="70.82" x2="52.2" y2="70.82"/><line id="_Path_6" data-name="&lt;Path&gt;" class="cls-3" x1="45.74" y1="75.38" x2="52.2" y2="75.38"/><line id="_Path_7" data-name="&lt;Path&gt;" class="cls-3" x1="45.74" y1="79.93" x2="52.2" y2="79.93"/><line id="_Path_8" data-name="&lt;Path&gt;" class="cls-3" x1="45.74" y1="84.9" x2="52.02" y2="84.9"/><line id="_Path_9" data-name="&lt;Path&gt;" class="cls-3" x1="45.74" y1="89.33" x2="52.02" y2="89.33"/><line id="_Path_10" data-name="&lt;Path&gt;" class="cls-3" x1="45.74" y1="93.77" x2="52.02" y2="93.77"/><circle id="_Path_11" data-name="&lt;Path&gt;" class="cls-4" cx="66.43" cy="70.82" r="7.62"/><circle id="_Path_12" data-name="&lt;Path&gt;" class="cls-5" cx="66.43" cy="70.82" r="7.62"/></g><g id="_Group_2" data-name="&lt;Group&gt;"><path id="_Path_13" data-name="&lt;Path&gt;" class="cls-4" d="M89.15,107.91l4,.73a.55.55,0,0,0,.64-.44l10.47-57.3a.55.55,0,0,0,0-.24L103,46a.55.55,0,0,0-1-.18l-2.78,3.95a.55.55,0,0,0-.09.22l-10.47,57.3A.55.55,0,0,0,89.15,107.91Z"/><rect id="_Path_14" data-name="&lt;Path&gt;" class="cls-6" x="71.07" y="74.95" width="51.36" height="5.15" transform="translate(3.11 158.77) rotate(-79.65)"/><path id="_Path_15" data-name="&lt;Path&gt;" class="cls-7" d="M88.61,107.81l5.06.92,10.59-58-1.35-5.26a.33.33,0,0,0-.59-.11L99.2,49.85Z"/><line id="_Path_16" data-name="&lt;Path&gt;" class="cls-7" x1="104.08" y1="52.75" x2="98.84" y2="51.8"/><line id="_Path_17" data-name="&lt;Path&gt;" class="cls-7" x1="95.05" y1="103.32" x2="89.23" y2="102.26"/></g></svg>