<svg id="Layer_1" data-name="Layer 1" xmlns="http://www.w3.org/2000/svg" viewBox="0 0 150 150"><defs><style>.cls-1,.cls-2,.cls-5{fill:none;}.cls-1{stroke:#e0e2de;}.cls-1,.cls-2,.cls-3,.cls-4,.cls-5{stroke-miterlimit:10;}.cls-2,.cls-4,.cls-6{stroke:#4a7894;}.cls-2,.cls-3,.cls-4,.cls-5,.cls-6{stroke-width:2px;}.cls-3,.cls-4,.cls-6{fill:#fff;}.cls-3,.cls-5{stroke:#ddc27f;}.cls-6{stroke-linecap:round;stroke-linejoin:round;}</style></defs><circle class="cls-1" cx="75" cy="75" r="68.25"/><path id="_Path_" data-name="&lt;Path&gt;" class="cls-2" d="M50,69.33l4-6a3.88,3.88,0,0,1,3.52-2.26H92.43A3.88,3.88,0,0,1,96,63.33l4,6"/><g id="_Group_" data-name="&lt;Group&gt;"><g id="_Group_2" data-name="&lt;Group&gt;"><rect id="_Rectangle_" data-name="&lt;Rectangle&gt;" class="cls-3" x="61.85" y="41.8" width="27.04" height="31.81" rx="1.5" ry="1.5"/><polyline id="_Path_2" data-name="&lt;Path&gt;" class="cls-3" points="72.8 56.28 72.8 41.8 77.95 41.8 77.95 48.38"/></g></g><g id="_Group_3" data-name="&lt;Group&gt;"><path id="_Path_3" data-name="&lt;Path&gt;" class="cls-4" d="M49.83,70.81a3.27,3.27,0,0,1,3.27-3.27H96.9a3.27,3.27,0,0,1,3.27,3.27v37.4H49.83Z"/><line id="_Path_4" data-name="&lt;Path&gt;" class="cls-5" x1="54.36" y1="73.51" x2="62.89" y2="73.51"/><line id="_Path_5" data-name="&lt;Path&gt;" class="cls-5" x1="54.36" y1="77.4" x2="58.63" y2="77.4"/></g><path class="cls-6" d="M74.9,83.2a7.77,7.77,0,0,1,4.73-2.95,5.07,5.07,0,0,1,5.59,4.13c.55,3.75-2.88,6.31-5.18,8.72L74.9,98.43c-1.4-1.74-3.14-3.29-4.69-4.9-2.41-2.51-6.28-5.31-5.7-9.25a5.08,5.08,0,0,1,5.77-4.1A7.6,7.6,0,0,1,74.9,83.2Z"/></svg>