<svg id="Layer_1" data-name="Layer 1" xmlns="http://www.w3.org/2000/svg" viewBox="0 0 150 150"><defs><style>.cls-1{fill:none;stroke:#e0e2de;}.cls-1,.cls-2{stroke-miterlimit:10;}.cls-2{fill:#fff;stroke:#4a7894;stroke-width:2px;}.cls-3{fill:#ddc27f;}</style></defs><circle class="cls-1" cx="75" cy="75" r="68.25"/><path id="_Path_" data-name="&lt;Path&gt;" class="cls-2" d="M105.63,107.93l-17.28-3.19a32.87,32.87,0,1,1,14.39-12.53Z"/><path class="cls-3" d="M72.54,70a18,18,0,0,0-1.83,2.39A4.42,4.42,0,0,0,69.94,74q.18,1.18,2.59,4.07a17.86,17.86,0,0,0,5.9,4.6q1.36-.24,4-2.54a1,1,0,0,1,.88-.18,10.25,10.25,0,0,1,2.21.83,8.75,8.75,0,0,1,2.77,2.09,7.2,7.2,0,0,1,.65.8q.15.24.21.35a1.58,1.58,0,0,1,.12.59A10.35,10.35,0,0,1,88.57,87a9.78,9.78,0,0,1-.91,1.68,5.9,5.9,0,0,1-1,1.09,8.49,8.49,0,0,1-.8.62,2,2,0,0,1-.41.21.63.63,0,0,1-.35.12.66.66,0,0,1-.29-.06L84,90.38q-1.36-.35-2.27-.65t-2.89-1.18a25.31,25.31,0,0,1-3.51-1.89,36.26,36.26,0,0,1-3.66-2.83,25.94,25.94,0,0,1-3.77-4,39.86,39.86,0,0,1-3.36-5.42,45.28,45.28,0,0,1-2.95-7,1.2,1.2,0,0,1,0-.53,1,1,0,0,1,.09-.38,5,5,0,0,1,.5-.77,6,6,0,0,1,1-1,6.7,6.7,0,0,1,1.68-.94A11.32,11.32,0,0,1,67.41,63a.86.86,0,0,1,.53.06,2,2,0,0,1,.56.27q.32.21,1.09.77A9.3,9.3,0,0,1,71,65.35a8.36,8.36,0,0,1,1.18,1.74,5.31,5.31,0,0,1,.62,2.24A.79.79,0,0,1,72.54,70Z"/></svg>