<svg id="Layer_1" data-name="Layer 1" xmlns="http://www.w3.org/2000/svg" viewBox="0 0 150 150"><defs><style>.cls-1,.cls-2,.cls-4{fill:none;}.cls-1{stroke:#e0e2de;}.cls-1,.cls-2,.cls-3,.cls-4{stroke-miterlimit:10;}.cls-2,.cls-3{stroke:#4a7894;}.cls-2,.cls-3,.cls-4{stroke-width:2px;}.cls-3{fill:#fff;}.cls-4{stroke:#ddc27f;}</style></defs><circle class="cls-1" cx="75" cy="75" r="68.25"/><g id="_Group_" data-name="&lt;Group&gt;"><rect id="_Rectangle_" data-name="&lt;Rectangle&gt;" class="cls-2" x="43.28" y="51.55" width="63.43" height="53.36" rx="3.15" ry="3.15"/><path id="_Path_" data-name="&lt;Path&gt;" class="cls-3" d="M92,104.91h11.66a3,3,0,0,0,3-3V54.58a3,3,0,0,0-3-3H46.32a3,3,0,0,0-3,3v47.3a3,3,0,0,0,3,3H92Z"/><line id="_Path_2" data-name="&lt;Path&gt;" class="cls-2" x1="53.45" y1="45.09" x2="53.45" y2="55.28"/><line id="_Path_3" data-name="&lt;Path&gt;" class="cls-2" x1="60.49" y1="45.09" x2="60.49" y2="55.28"/><line id="_Path_4" data-name="&lt;Path&gt;" class="cls-2" x1="67.54" y1="45.09" x2="67.54" y2="55.28"/><line id="_Path_5" data-name="&lt;Path&gt;" class="cls-2" x1="74.58" y1="45.09" x2="74.58" y2="55.28"/><line id="_Path_6" data-name="&lt;Path&gt;" class="cls-2" x1="81.62" y1="45.09" x2="81.62" y2="55.28"/><line id="_Path_7" data-name="&lt;Path&gt;" class="cls-2" x1="88.67" y1="45.09" x2="88.67" y2="55.28"/><line id="_Path_8" data-name="&lt;Path&gt;" class="cls-2" x1="95.71" y1="45.09" x2="95.71" y2="55.28"/><circle id="_Path_9" data-name="&lt;Path&gt;" class="cls-4" cx="74.58" cy="84.59" r="13.34"/><polyline id="_Path_10" data-name="&lt;Path&gt;" class="cls-2" points="81.99 78.88 72.42 88.45 67.17 83.2"/><line id="_Path_11" data-name="&lt;Path&gt;" class="cls-2" x1="43.47" y1="62.68" x2="106.72" y2="62.68"/></g></svg>