<svg id="Layer_1" data-name="Layer 1" xmlns="http://www.w3.org/2000/svg" viewBox="0 0 150 150"><defs><style>.cls-1,.cls-3,.cls-6{fill:#fff;}.cls-1{stroke:#e0e2de;}.cls-1,.cls-2,.cls-5,.cls-6{stroke-miterlimit:10;}.cls-2,.cls-5{fill:none;}.cls-2,.cls-6{stroke:#4a7894;stroke-width:2px;}.cls-4{fill:#ddc27f;}.cls-5{stroke:#ddc27f;stroke-width:1.5px;}</style></defs><title>circle-call</title><circle class="cls-1" cx="75" cy="75" r="68.25"/><path id="_Path_" data-name="&lt;Path&gt;" class="cls-2" d="M82.55,53.3h6.92a2,2,0,0,1,2,2V79.13a2,2,0,0,1-2,2h-33l-11.7,14a.52.52,0,0,1-.92-.33V81.14H42.25a2,2,0,0,1-2-2V55.31a2,2,0,0,1,2-2H82.55Z"/><circle id="_Path_2" data-name="&lt;Path&gt;" class="cls-3" cx="53.06" cy="67.98" r="3.64"/><circle id="_Path_3" data-name="&lt;Path&gt;" class="cls-3" cx="67.09" cy="67.98" r="3.64"/><circle id="_Path_4" data-name="&lt;Path&gt;" class="cls-3" cx="81.13" cy="67.98" r="3.64"/><circle id="_Path_5" data-name="&lt;Path&gt;" class="cls-4" cx="53.06" cy="67.98" r="3.64"/><circle id="_Path_6" data-name="&lt;Path&gt;" class="cls-4" cx="67.09" cy="67.98" r="3.64"/><circle id="_Path_7" data-name="&lt;Path&gt;" class="cls-5" cx="81.13" cy="67.98" r="3.64"/><path id="_Path_8" data-name="&lt;Path&gt;" class="cls-6" d="M110.46,99,100,97.06a19.88,19.88,0,1,1,8.71-7.58Z"/><path id="_Path_9" data-name="&lt;Path&gt;" class="cls-6" d="M78,93a19.89,19.89,0,0,1-3.22-4.18"/><path class="cls-4" d="M90.49,75.66a12,12,0,0,0-1.22,1.6,3,3,0,0,0-.52,1.08,7.57,7.57,0,0,0,1.73,2.72,12,12,0,0,0,3.95,3.08,6.85,6.85,0,0,0,2.68-1.7.67.67,0,0,1,.59-.12,6.86,6.86,0,0,1,1.48.56,5.86,5.86,0,0,1,1.85,1.4,4.82,4.82,0,0,1,.43.54l.14.23a1.06,1.06,0,0,1,.08.39,6.93,6.93,0,0,1-.47,1.6,6.54,6.54,0,0,1-.61,1.12,4,4,0,0,1-.67.73,5.68,5.68,0,0,1-.54.41,1.34,1.34,0,0,1-.27.14.42.42,0,0,1-.23.08.44.44,0,0,1-.19,0l-.54-.19q-.91-.23-1.52-.43t-1.93-.79a16.94,16.94,0,0,1-2.35-1.26,24.26,24.26,0,0,1-2.45-1.89,17.36,17.36,0,0,1-2.52-2.68,26.67,26.67,0,0,1-2.25-3.63,30.3,30.3,0,0,1-2-4.68.8.8,0,0,1,0-.35.67.67,0,0,1,.06-.25,3.35,3.35,0,0,1,.33-.52,4,4,0,0,1,.67-.67,4.48,4.48,0,0,1,1.12-.63A7.58,7.58,0,0,1,87.06,71a.58.58,0,0,1,.35,0,1.34,1.34,0,0,1,.37.18l.73.52a6.22,6.22,0,0,1,.94.84,5.59,5.59,0,0,1,.79,1.16,3.55,3.55,0,0,1,.41,1.5A.53.53,0,0,1,90.49,75.66Z"/></svg>