<svg id="Layer_1" data-name="Layer 1" xmlns="http://www.w3.org/2000/svg" viewBox="0 0 75 75"><defs><style>.cls-1{fill:#fff;stroke:#4a7894;}.cls-1,.cls-2{stroke-linecap:round;stroke-linejoin:round;stroke-width:2px;}.cls-2{fill:none;stroke:#ddc27f;stroke-dasharray:1 3 6 6;}</style></defs><rect class="cls-1" x="34.73" y="51.47" width="5.51" height="5.72"/><path class="cls-1" d="M13.72,57.9H61.28a4.3,4.3,0,0,1,4.3,4.3v0a.52.52,0,0,1-.52.52H9.94a.52.52,0,0,1-.52-.52v0a4.3,4.3,0,0,1,4.3-4.3Z"/><path class="cls-1" d="M57.63,50.2H16.54a.74.74,0,0,1-.71-.76V50c0-11.15,8.54-20.27,19-20.27h5.25c10.06,0,18.29,8.79,18.29,19.53v.18A.74.74,0,0,1,57.63,50.2Z"/><path class="cls-1" d="M18.86,46.22H55.8A5.21,5.21,0,0,1,61,51.44v.2a.63.63,0,0,1-.63.63H14.28a.63.63,0,0,1-.63-.63v-.2A5.21,5.21,0,0,1,18.86,46.22Z"/><rect class="cls-1" x="34.73" y="24.17" width="4.66" height="5.37"/><rect class="cls-1" x="32.32" y="22.59" width="9.48" height="3.8" rx="1.9" ry="1.9"/><path class="cls-2" d="M29.86,34.35a15.32,15.32,0,0,0-7.54,7.78"/><path class="cls-2" d="M55,49a134.54,134.54,0,0,1-13.78.36"/></svg>