<svg id="Layer_1" data-name="Layer 1" xmlns="http://www.w3.org/2000/svg" viewBox="0 0 75 75"><defs><style>.cls-1{fill:#fff;stroke:#4a7894;stroke-linecap:round;stroke-linejoin:round;stroke-width:2px;}.cls-2{fill:#ddc27f;}.cls-3{fill:#f1e7cc;}</style></defs><path class="cls-1" d="M5.87,46.7c2.33-2.11,5-4.11,7-6.54,1.29-1.57,2.67-3.25,4.58-4.06s4-.6,5.9-.47,11.42.14,14.27,0c1.65-.08,3.21,0,3.22,0,1.16.06,1.46,2.44.87,3.11-.8.91-2.68.82-3.74.82-3.68,0-11.59-.14-11.59-.14s5.14,3.72,7.17,3.8S42,44,44,43.35a32.53,32.53,0,0,0,5.65-2.54c1-.54,3.59-2.83,4.66-1.49.81,1-1.83,3.45-1.83,3.45A20.29,20.29,0,0,1,41.58,48a40.9,40.9,0,0,1-6.68,0c4.59.23,9.08.05,13.26-2.07,1.62-.82,6.62-4.62,6.63-4.63a1.69,1.69,0,0,1,2.1.22c.9,1.48-3.91,5-4.94,5.87,0,0-6.79,4.33-9.18,4.44a80.51,80.51,0,0,1-8.67-.32c-.05.18,0,.15,0,.33a61.3,61.3,0,0,0,8,0,7.48,7.48,0,0,0,3.75-1c1.46-.81,2.88-1.38,4.31-2.25,1.1-.67,2.19-1.35,3.29-2,.88-.53,3-2.36,3.62-.45a2,2,0,0,1-.93,2.07S46.33,55.56,41,55.91a51,51,0,0,1-8.7-.1v-.09a86.28,86.28,0,0,0,9.29.15c2.22-.29,6.59-2.41,7.38-2.93s2.38.36,2.44,2.12c0,1.07-5.2,2.86-7,3.5s-8.3,1.56-10.63,1.21c-2-.31-10.59-2-11.52-2.17s-4.84-1.06-6.3-.81S7.37,62.6,7.37,62.6"/><path class="cls-2" d="M64.08,33.21a3.78,3.78,0,0,1,2.3-1.43,2.46,2.46,0,0,1,2.72,2c.27,1.82-1.4,3.07-2.52,4.24l-2.5,2.59c-.68-.85-1.53-1.6-2.28-2.38C60.63,37,58.75,35.65,59,33.73a2.47,2.47,0,0,1,2.81-2A3.7,3.7,0,0,1,64.08,33.21Z"/><path class="cls-2" d="M28.25,24.36A2.83,2.83,0,0,1,30,23.29a1.85,1.85,0,0,1,2,1.5c.2,1.37-1,2.3-1.89,3.18l-1.87,1.94c-.51-.64-1.14-1.2-1.71-1.79-.88-.92-2.29-1.94-2.08-3.37a1.85,1.85,0,0,1,2.1-1.5A2.77,2.77,0,0,1,28.25,24.36Z"/><path class="cls-1" d="M48,19.49a7.77,7.77,0,0,1,4.73-2.95,5.07,5.07,0,0,1,5.59,4.13c.55,3.75-2.88,6.31-5.18,8.72L48,34.72c-1.4-1.74-3.14-3.29-4.69-4.9-2.41-2.51-6.28-5.31-5.7-9.25a5.08,5.08,0,0,1,5.77-4.1A7.6,7.6,0,0,1,48,19.49Z"/><path class="cls-3" d="M45.45,18.56s-4.87.63-3.92,5.17c.64,3,6.44,9.46,6.44,9.46l-5.19-5-2.5-2.65s-4.55-5.4.88-7.82C43.33,16.71,45.45,18.56,45.45,18.56Z"/></svg>