<svg id="Layer_1" data-name="Layer 1" xmlns="http://www.w3.org/2000/svg" viewBox="0 0 75 75"><defs><style>.cls-1,.cls-3{fill:#fff;}.cls-1,.cls-2,.cls-3,.cls-8{stroke:#4a7894;}.cls-1,.cls-2,.cls-3{stroke-miterlimit:10;}.cls-1{stroke-width:2px;}.cls-2,.cls-8{fill:none;}.cls-4{fill:#ebdab2;}.cls-5{fill:#f1e7cc;}.cls-6{fill:#f8f3e5;}.cls-7{fill:#e4ce99;}.cls-8{stroke-linecap:round;stroke-linejoin:round;}</style></defs><path class="cls-1" d="M47.37,19.79V12.1a2.21,2.21,0,0,1,2.21-2.21h3.78a2.21,2.21,0,0,1,2.21,2.21V28Z"/><path class="cls-1" d="M37.48,11.4,58.6,32.86V61.91a1.28,1.28,0,0,1-1.28,1.28H17.52a1.28,1.28,0,0,1-1.28-1.28V32.86Z"/><path class="cls-1" d="M63.63,35.83,39.25,11.45a2.5,2.5,0,0,0-3.54,0L11.36,35.8a1.52,1.52,0,0,0,0,2.15h0a1.52,1.52,0,0,0,2.15,0L36.87,14.59a.85.85,0,0,1,1.2,0L61.41,38A1.56,1.56,0,0,0,63.69,38h0A1.56,1.56,0,0,0,63.63,35.83Z"/><path class="cls-2" d="M27.35,45.16a.5.5,0,0,1-.49-.58,3.42,3.42,0,0,1,6.71-.13.6.6,0,0,1-.6.71Z"/><rect class="cls-1" x="19.82" y="61.91" width="20.84" height="3.2" rx="1.6" ry="1.6"/><path class="cls-2" d="M25.27,38.58h9.93a1.57,1.57,0,0,1,1.57,1.57V61.94a0,0,0,0,1,0,0H23.7a0,0,0,0,1,0,0V40.15A1.57,1.57,0,0,1,25.27,38.58Z"/><path class="cls-2" d="M48.09,41.67h0a4,4,0,0,1,4,4v5.51a0,0,0,0,1,0,0h-8a0,0,0,0,1,0,0V45.65A4,4,0,0,1,48.09,41.67Z"/><line class="cls-2" x1="44.5" y1="45.07" x2="51.69" y2="45.07"/><rect class="cls-3" x="43.25" y="50.6" width="9.67" height="2.58" rx="1.29" ry="1.29"/><circle class="cls-3" cx="37.46" cy="28.67" r="3.76"/><rect class="cls-4" x="46.37" y="34.01" width="6.04" height="2.42" rx="1.21" ry="1.21"/><rect class="cls-5" x="40.9" y="36.16" width="6.04" height="2.42" rx="1.21" ry="1.21"/><rect class="cls-6" x="39.6" y="56.02" width="6.04" height="2.42" rx="1.21" ry="1.21"/><rect class="cls-7" x="48.94" y="57.09" width="6.04" height="2.42" rx="1.21" ry="1.21"/><rect class="cls-4" x="25.73" y="32.35" width="6.04" height="2.42" rx="1.21" ry="1.21"/><line class="cls-8" x1="27.66" y1="58.14" x2="32.83" y2="58.14"/></svg>