<svg id="Layer_1" data-name="Layer 1" xmlns="http://www.w3.org/2000/svg" viewBox="0 0 160 160"><defs><style>.cls-1,.cls-2,.cls-3{fill:#fff;}.cls-2,.cls-6{font-size:14.39px;font-family:Montserrat-Light, Montserrat;}.cls-3,.cls-4{stroke:#3b4c5e;stroke-miterlimit:10;}.cls-4{fill:none;}.cls-5{fill:#805e73;}.cls-6{fill:#3b4c5e;}</style></defs><circle class="cls-1" cx="80" cy="80" r="77.2"/><circle class="cls-1" cx="80" cy="80" r="70.44"/><circle class="cls-1" cx="79.59" cy="80.1" r="31.93"/><path class="cls-1" d="M79.65,72.48c2-2.42,4.87-4.55,8-5a8.6,8.6,0,0,1,9.5,6.95c.94,6.32-4.89,10.63-8.8,14.68l-8.73,9c-2.38-2.94-5.34-5.54-8-8.25C67.59,85.64,61,80.92,62,74.29a8.62,8.62,0,0,1,9.81-6.91A12.92,12.92,0,0,1,79.65,72.48Z"/><text class="cls-2" transform="matrix(-0.25, 0.97, -0.97, -0.25, 126.14, 87.45)">K</text><text class="cls-2" transform="translate(123.34 98) rotate(117.83)">A</text><text class="cls-2" transform="matrix(-0.63, 0.78, -0.78, -0.63, 118.44, 107.05)">T</text><text class="cls-2" transform="matrix(-0.77, 0.63, -0.63, -0.77, 112.78, 113.99)">E</text><text class="cls-2" transform="translate(104.55 120.33) rotate(149.25)">’</text><text class="cls-2" transform="matrix(-0.92, 0.38, -0.38, -0.92, 101.29, 122.43)">S</text><text class="cls-2" transform="matrix(-0.97, 0.23, -0.23, -0.97, 92.11, 125.91)"> </text><text class="cls-2" transform="translate(87.24 127.21) rotate(176.29)">P</text><text class="cls-2" transform="matrix(-0.99, -0.16, 0.16, -0.99, 76.72, 127.83)">R</text><text class="cls-2" transform="matrix(-0.91, -0.41, 0.41, -0.91, 65.59, 125.95)">O</text><text class="cls-2" transform="translate(54.12 120.84) rotate(-139.7)">M</text><text class="cls-2" transform="matrix(-0.61, -0.79, 0.79, -0.61, 43.52, 111.08)">I</text><text class="cls-2" transform="matrix(-0.48, -0.88, 0.88, -0.48, 40.23, 107.01)">S</text><text class="cls-2" transform="matrix(-0.28, -0.96, 0.96, -0.28, 35.61, 98.44)">E</text><text class="cls-2" transform="translate(33.37 88) rotate(-96.56)"> </text><text class="cls-2" transform="translate(32.85 82.89) rotate(-90.71)">•</text><text class="cls-2" transform="matrix(0.09, -1, 1, 0.09, 32.84, 78.24)"> </text><text class="cls-2" transform="translate(33.13 73.23) rotate(-74.95)">K</text><text class="cls-2" transform="translate(36.06 62.73) rotate(-61.49)">A</text><text class="cls-2" transform="matrix(0.64, -0.77, 0.77, 0.64, 41.08, 53.73)">T</text><text class="cls-2" transform="translate(46.79 46.87) rotate(-38.75)">E</text><text class="cls-2" transform="matrix(0.87, -0.5, 0.5, 0.87, 55.14, 40.6)">’</text><text class="cls-2" transform="matrix(0.93, -0.37, 0.37, 0.93, 58.42, 38.54)">S</text><text class="cls-2" transform="translate(67.63 35.18) rotate(-12.55)"> </text><text class="cls-2" transform="translate(72.5 33.88) rotate(-2.28)">P</text><text class="cls-2" transform="translate(83.02 33.44) rotate(10.15)">R</text><text class="cls-2" transform="translate(94.14 35.46) rotate(24.74)">O</text><text class="cls-2" transform="translate(105.55 40.72) rotate(40.98)">M</text><text class="cls-2" transform="translate(116.04 50.61) rotate(52.84)">I</text><text class="cls-2" transform="translate(119.29 54.72) rotate(62.01)">S</text><text class="cls-2" transform="translate(123.77 63.31) rotate(74.24)">E</text><text class="cls-2" transform="translate(126.3 73.41) rotate(83.64)"> </text><text class="cls-2" transform="translate(126.8 78.54) rotate(89.52)">•</text><circle class="cls-1" cx="80" cy="80" r="77.2"/><circle class="cls-3" cx="80" cy="80" r="70.44"/><circle class="cls-4" cx="79.59" cy="80.1" r="31.93"/><path class="cls-5" d="M79.65,72.48c2-2.42,4.87-4.55,8-5a8.6,8.6,0,0,1,9.5,6.95c.94,6.32-4.89,10.63-8.8,14.68l-8.73,9c-2.38-2.94-5.34-5.54-8-8.25C67.59,85.64,61,80.92,62,74.29a8.62,8.62,0,0,1,9.81-6.91A12.92,12.92,0,0,1,79.65,72.48Z"/><text class="cls-6" transform="matrix(-0.25, 0.97, -0.97, -0.25, 126.14, 87.45)">K</text><text class="cls-6" transform="translate(123.34 98) rotate(117.83)">A</text><text class="cls-6" transform="matrix(-0.63, 0.78, -0.78, -0.63, 118.44, 107.05)">T</text><text class="cls-6" transform="matrix(-0.77, 0.63, -0.63, -0.77, 112.78, 113.99)">E</text><text class="cls-6" transform="translate(104.55 120.33) rotate(149.25)">’</text><text class="cls-6" transform="matrix(-0.92, 0.38, -0.38, -0.92, 101.29, 122.43)">S</text><text class="cls-6" transform="matrix(-0.97, 0.23, -0.23, -0.97, 92.11, 125.91)"> </text><text class="cls-6" transform="translate(87.24 127.21) rotate(176.29)">P</text><text class="cls-6" transform="matrix(-0.99, -0.16, 0.16, -0.99, 76.72, 127.83)">R</text><text class="cls-6" transform="matrix(-0.91, -0.41, 0.41, -0.91, 65.59, 125.95)">O</text><text class="cls-6" transform="translate(54.12 120.84) rotate(-139.7)">M</text><text class="cls-6" transform="matrix(-0.61, -0.79, 0.79, -0.61, 43.52, 111.08)">I</text><text class="cls-6" transform="matrix(-0.48, -0.88, 0.88, -0.48, 40.23, 107.01)">S</text><text class="cls-6" transform="matrix(-0.28, -0.96, 0.96, -0.28, 35.61, 98.44)">E</text><text class="cls-6" transform="translate(33.37 88) rotate(-96.56)"> </text><text class="cls-6" transform="translate(32.85 82.89) rotate(-90.71)">•</text><text class="cls-6" transform="matrix(0.09, -1, 1, 0.09, 32.84, 78.24)"> </text><text class="cls-6" transform="translate(33.13 73.23) rotate(-74.95)">K</text><text class="cls-6" transform="translate(36.06 62.73) rotate(-61.49)">A</text><text class="cls-6" transform="matrix(0.64, -0.77, 0.77, 0.64, 41.08, 53.73)">T</text><text class="cls-6" transform="translate(46.79 46.87) rotate(-38.75)">E</text><text class="cls-6" transform="matrix(0.87, -0.5, 0.5, 0.87, 55.14, 40.6)">’</text><text class="cls-6" transform="matrix(0.93, -0.37, 0.37, 0.93, 58.42, 38.54)">S</text><text class="cls-6" transform="translate(67.63 35.18) rotate(-12.55)"> </text><text class="cls-6" transform="translate(72.5 33.88) rotate(-2.28)">P</text><text class="cls-6" transform="translate(83.02 33.44) rotate(10.15)">R</text><text class="cls-6" transform="translate(94.14 35.46) rotate(24.74)">O</text><text class="cls-6" transform="translate(105.55 40.72) rotate(40.98)">M</text><text class="cls-6" transform="translate(116.04 50.61) rotate(52.84)">I</text><text class="cls-6" transform="translate(119.29 54.72) rotate(62.01)">S</text><text class="cls-6" transform="translate(123.77 63.31) rotate(74.24)">E</text><text class="cls-6" transform="translate(126.3 73.41) rotate(83.64)"> </text><text class="cls-6" transform="translate(126.8 78.54) rotate(89.52)">•</text></svg>