<svg id="Layer_1" data-name="Layer 1" xmlns="http://www.w3.org/2000/svg" viewBox="0 0 29 29"><defs><style>.cls-1{fill:#fff;stroke:#e0e2de;stroke-miterlimit:10;}.cls-2{fill:#805e73;}</style></defs><circle class="cls-1" cx="14.5" cy="14.5" r="14"/><path class="cls-2" d="M20,12.83l-3.28,2.28c-.46.32-1.23,1-1.79,1h0c-.57,0-1.34-.64-1.79-1L9.83,12.83a2.73,2.73,0,0,1-1.21-1.77A1.14,1.14,0,0,1,9.75,9.79H20.06a1.13,1.13,0,0,1,1.12,1.12A2.53,2.53,0,0,1,20,12.83Zm1.2,5.7a1.12,1.12,0,0,1-1.12,1.12H9.75a1.12,1.12,0,0,1-1.12-1.12V13a3.91,3.91,0,0,0,.71.61c1.16.79,2.34,1.58,3.48,2.42a3.84,3.84,0,0,0,2.08,1h0A3.84,3.84,0,0,0,17,16c1.14-.83,2.32-1.63,3.49-2.42a4.14,4.14,0,0,0,.7-.61Z"/></svg>