<svg id="Layer_1" data-name="Layer 1" xmlns="http://www.w3.org/2000/svg" viewBox="0 0 29 29"><defs><style>.cls-1{fill:#fff;stroke:#e0e2de;stroke-miterlimit:10;}.cls-2{fill:#805e73;}</style></defs><circle class="cls-1" cx="14.5" cy="14.5" r="14"/><path class="cls-2" d="M20.63,17.77l-.57,1a1.15,1.15,0,0,1-1.56.42l-2.37-1.37v2.74A1.15,1.15,0,0,1,15,21.69H13.83a1.15,1.15,0,0,1-1.14-1.14V17.81l-2.37,1.37a1.15,1.15,0,0,1-1.56-.42l-.57-1a1.15,1.15,0,0,1,.42-1.56L11,14.83,8.6,13.46a1.15,1.15,0,0,1-.42-1.56l.57-1a1.15,1.15,0,0,1,1.56-.42l2.37,1.37V9.12A1.15,1.15,0,0,1,13.83,8H15a1.15,1.15,0,0,1,1.14,1.14v2.74l2.37-1.37a1.15,1.15,0,0,1,1.56.42l.57,1a1.15,1.15,0,0,1-.42,1.56l-2.37,1.38,2.37,1.37A1.15,1.15,0,0,1,20.63,17.77Z"/></svg>