<svg id="Layer_1" data-name="Layer 1" xmlns="http://www.w3.org/2000/svg" viewBox="0 0 29 29"><defs><style>.cls-1{fill:#fff;stroke:#e0e2de;stroke-miterlimit:10;}.cls-2{fill:#805e73;}</style></defs><circle class="cls-1" cx="14.5" cy="14.5" r="14"/><path class="cls-2" d="M19.91,19.28a2.05,2.05,0,0,1-.95.82,3,3,0,0,1-1.45.4,6,6,0,0,1-2-.54,7.2,7.2,0,0,1-1.36-.65,13.1,13.1,0,0,1-3.74-3.74,7.2,7.2,0,0,1-.65-1.36,6,6,0,0,1-.54-2,3,3,0,0,1,.4-1.45,2.05,2.05,0,0,1,.82-.95,3.45,3.45,0,0,1,1.08-.24.4.4,0,0,1,.16,0c.16.05.33.44.41.59.25.44.49.89.75,1.33.12.2.36.45.36.69,0,.47-1.41,1.17-1.41,1.59a1.67,1.67,0,0,0,.3.67,7.74,7.74,0,0,0,3.18,3.18,1.67,1.67,0,0,0,.67.3c.42,0,1.11-1.41,1.59-1.41.24,0,.49.23.69.36.44.26.89.5,1.33.75.16.08.54.25.59.41a.4.4,0,0,1,0,.16A3.45,3.45,0,0,1,19.91,19.28Z"/></svg>